<?xml version="1.0" standalone="no"?>
<!DOCTYPE svg PUBLIC "-//W3C//DTD SVG 20010904//EN"
 "http://www.w3.org/TR/2001/REC-SVG-20010904/DTD/svg10.dtd">
<svg version="1.0" xmlns="http://www.w3.org/2000/svg"
 width="1280.000000pt" height="732.000000pt" viewBox="0 0 1280.000000 732.000000"
 preserveAspectRatio="xMidYMid meet">
<g transform="translate(0.000000,732.000000) scale(0.100000,-0.100000)"
fill="#000000" stroke="none">
<path d="M2568 7247 c-9 -145 -101 -278 -239 -346 -37 -18 -120 -46 -185 -62
-66 -16 -151 -45 -191 -64 -74 -36 -206 -149 -232 -199 -24 -44 -39 -31 -56
52 -51 242 -101 362 -178 426 -26 22 -50 37 -53 33 -4 -3 -10 -66 -15 -139
-18 -255 -70 -488 -109 -488 -5 0 -30 15 -55 34 -66 51 -147 79 -232 80 -58 1
-77 -3 -99 -20 -32 -23 -49 -64 -40 -98 5 -21 13 -24 64 -28 73 -5 128 -33
169 -86 43 -56 77 -150 65 -177 -22 -48 -161 -205 -355 -402 l-210 -212 6 -53
c4 -29 9 -66 12 -83 5 -25 -7 -52 -66 -155 -217 -377 -399 -622 -506 -682 -75
-42 -82 -93 -29 -203 24 -48 25 -58 20 -146 -10 -140 6 -202 66 -261 42 -43
52 -48 91 -48 41 0 61 9 121 52 12 9 21 9 28 2 7 -7 -6 -31 -44 -80 -31 -38
-52 -71 -48 -75 7 -6 72 -23 129 -34 54 -10 121 5 168 39 24 17 168 135 320
263 l276 232 97 21 c192 42 314 93 447 188 150 106 246 227 291 366 32 99 36
253 10 385 -9 46 -14 86 -12 88 8 8 47 -86 66 -162 24 -92 29 -228 11 -295 -7
-25 -28 -71 -47 -102 -19 -32 -33 -62 -30 -66 3 -5 27 -17 53 -27 400 -150
940 -617 1181 -1021 46 -77 50 -89 56 -171 4 -48 9 -114 13 -145 4 -39 2 -58
-5 -58 -12 0 -23 34 -46 135 l-13 60 -71 -145 c-39 -80 -119 -273 -177 -430
-59 -157 -131 -334 -159 -395 -49 -103 -59 -116 -159 -215 -135 -131 -167
-188 -167 -295 0 -62 5 -82 35 -141 89 -179 320 -355 523 -400 101 -22 170
-15 269 30 132 59 190 71 348 70 162 0 231 -13 391 -74 60 -22 128 -43 152
-47 40 -5 42 -4 42 19 0 14 9 33 20 43 19 17 19 18 -22 79 -54 80 -327 444
-339 451 -5 3 -40 -8 -78 -24 -96 -43 -161 -55 -256 -48 -173 13 -397 127
-365 186 10 21 173 148 319 251 l103 73 57 -13 c31 -7 61 -13 67 -15 5 -2 27
-43 48 -91 73 -173 234 -427 484 -764 199 -267 242 -328 242 -343 0 -6 -44
-39 -96 -72 -93 -58 -134 -95 -134 -120 0 -7 11 -29 25 -49 29 -42 37 -32
-107 -127 -390 -257 -505 -497 -321 -676 98 -96 268 -161 518 -197 61 -9 140
-21 177 -26 37 -6 82 -10 101 -10 l34 0 -8 42 c-42 221 5 584 83 632 24 15 58
-20 121 -122 58 -96 60 -95 71 38 13 151 70 399 95 415 5 2 23 -14 40 -36 23
-28 61 -54 134 -90 182 -91 359 -219 446 -322 24 -29 61 -88 81 -133 30 -65
44 -83 69 -94 47 -19 92 -1 186 75 44 36 86 65 93 65 7 0 31 -12 53 -26 96
-60 283 -120 410 -130 99 -9 129 -1 129 31 0 20 5 25 24 25 22 0 26 6 33 48
11 67 7 238 -7 308 -46 233 -146 419 -239 444 -75 20 -171 -21 -311 -136 -44
-35 -83 -64 -89 -64 -14 0 -25 103 -18 176 4 35 4 64 1 64 -9 0 -63 -30 -180
-100 -63 -37 -137 -73 -164 -80 -90 -22 -194 15 -325 115 -85 65 -120 101
-107 109 6 3 62 24 126 46 294 101 616 249 838 383 69 42 131 77 136 77 11 0
362 -379 472 -510 39 -47 87 -109 106 -137 41 -61 52 -64 146 -32 33 11 64 17
68 12 5 -4 22 -42 40 -83 69 -164 178 -303 283 -357 45 -24 64 -28 138 -28
l86 0 58 45 c62 48 131 134 172 213 52 104 82 290 66 417 -8 59 -10 65 -31 63
-15 -2 -26 5 -33 21 l-11 23 -217 0 c-218 0 -309 11 -318 40 -3 7 13 21 35 32
97 49 127 106 83 150 -26 26 -64 36 -271 66 -346 51 -509 117 -577 232 -31 53
-36 45 112 163 224 178 450 313 639 379 148 52 255 72 449 81 194 10 269 20
367 51 305 96 540 323 736 710 80 158 144 313 133 324 -13 13 -11 25 5 25 16
0 19 13 37 123 6 43 16 80 21 83 6 4 22 -3 37 -14 58 -42 157 -84 235 -99 237
-45 488 57 734 299 100 98 167 176 294 343 171 225 320 362 488 449 173 89
293 112 632 120 266 7 358 17 468 52 102 32 188 85 282 173 149 139 271 331
322 503 30 104 56 243 56 300 0 46 -37 238 -48 250 -10 10 -93 -3 -97 -16 -1
-6 -12 -51 -24 -99 -58 -242 -186 -378 -407 -434 -83 -21 -404 -23 -604 -5
-830 78 -1292 -21 -1620 -348 -140 -140 -243 -301 -369 -582 -170 -376 -207
-427 -324 -442 -57 -7 -57 -7 -82 134 -54 311 -227 606 -478 816 -268 225
-505 305 -903 305 -365 0 -678 -55 -1323 -233 -714 -197 -745 -203 -964 -195
-162 5 -272 30 -428 94 -101 42 -241 121 -292 165 -31 28 -32 28 -12 44 11 8
57 37 102 64 160 95 294 206 350 291 23 35 67 178 58 188 -3 2 -42 -12 -87
-32 -114 -49 -148 -57 -260 -57 -142 0 -316 40 -468 107 l-55 24 106 99 c113
105 201 213 242 295 31 63 78 215 67 215 -5 0 -38 -18 -72 -40 -80 -51 -180
-83 -393 -125 -201 -40 -544 -90 -553 -81 -3 4 0 21 7 39 52 128 73 207 78
300 7 109 3 117 -54 117 -29 0 -33 -5 -62 -66 -36 -78 -122 -168 -226 -237
-66 -45 -95 -56 -95 -39 0 4 9 32 19 63 37 103 45 181 31 298 -7 58 -15 110
-17 114 -3 5 -21 -15 -40 -45 -19 -29 -47 -63 -62 -76 -42 -37 -156 -91 -268
-128 -120 -39 -148 -42 -139 -16 3 9 19 55 35 102 46 131 65 285 41 331 -8 14
-21 19 -49 19 -36 0 -38 -2 -50 -42 -25 -83 -75 -162 -153 -240 -109 -109
-113 -107 -113 44 0 144 -19 233 -69 324 -29 53 -36 59 -68 62 l-35 3 -5 -74z
m-1514 -1729 c22 -30 4 -48 -48 -48 -76 0 -84 22 -21 54 40 21 51 20 69 -6z
m5583 -2164 c3 -8 1 -20 -6 -27 -14 -14 -47 15 -37 32 10 16 36 13 43 -5z
m-357 -188 c0 -26 -86 -242 -141 -353 -57 -115 -82 -155 -134 -210 -40 -42
-67 -80 -71 -98 -9 -51 22 -109 92 -174 48 -43 61 -61 52 -68 -7 -5 -58 -34
-113 -63 -198 -105 -276 -172 -351 -303 -84 -145 -139 -190 -332 -266 -56 -23
-138 -59 -182 -81 -44 -22 -86 -40 -94 -40 -14 0 -26 21 -26 47 0 14 190 282
215 303 7 6 51 29 96 51 115 56 205 122 240 177 35 55 36 68 7 75 -21 6 -21 7
-4 26 17 18 16 21 -5 63 -67 132 -185 265 -273 307 -25 11 -46 25 -46 29 0 5
59 28 131 51 235 76 492 218 771 426 123 91 168 118 168 101z m-2885 -321 c35
-94 69 -150 128 -213 56 -58 55 -78 -1 -46 -69 39 -142 176 -168 314 -10 54
11 26 41 -55z m1705 -284 c0 -6 -9 -25 -20 -44 -24 -40 -44 -131 -60 -271 -15
-123 -23 -146 -52 -146 -37 0 -83 35 -140 105 l-53 67 -5 -80 c-8 -131 -26
-119 -70 49 -36 133 -50 270 -30 294 10 12 38 15 134 16 66 1 146 4 176 9 81
11 120 11 120 1z"/>
</g>
</svg>
